inDegrees=yes
name=ik_OwnShooting_orientations2.mot
DataType=double
version=3
OpenSimVersion=4.3-2021-08-27-4bc7ad9
endheader
time	pelvis_tilt	pelvis_list	pelvis_rotation	pelvis_tx	pelvis_ty	pelvis_tz	hip_flexion_r	hip_adduction_r	hip_rotation_r	knee_angle_r	knee_angle_r_beta	ankle_angle_r	subtalar_angle_r	mtp_angle_r	hip_flexion_l	hip_adduction_l	hip_rotation_l	knee_angle_l	knee_angle_l_beta	ankle_angle_l	subtalar_angle_l	mtp_angle_l	lumbar_extension	lumbar_bending	lumbar_rotation	arm_flex_r	arm_add_r	arm_rot_r	elbow_flex_r	pro_sup_r	wrist_flex_r	wrist_dev_r	arm_flex_l	arm_add_l	arm_rot_l	elbow_flex_l	pro_sup_l	wrist_flex_l	wrist_dev_l
9.970000000000001	-7.396081938758213	7.107904393376387	-116.2566320466324	0	0.9399999999999999	0	45.00013634623309	-9.99999998857335	0	60.00010807276967	1.04719943742226	-4.999999851047217	0	0	45.00013634623309	-9.99999998857335	0	60.00010807276967	1.04719943742226	-4.999999851047217	0	0	10.54398249549973	5.790732660370076	20.18925816350201	23.18427762187157	28.83442545766997	63.44811070260126	38.24500824925396	45.00000025533598	0	0	0	-14.90765361630861	0	74.99994865247052	45.00000025533598	0	0
9.98	-7.391416882927305	7.0982547204898	-116.2842349362975	0	0.9399999999999999	0	45.00013487168758	-9.99999998857335	0	60.00010842257234	1.047199443527469	-4.999999851047217	0	0	45.00013487168758	-9.99999998857335	0	60.00010842257234	1.047199443527469	-4.999999851047217	0	0	10.51865778365976	5.80217143513429	20.23072439660663	16.61057709556747	26.43697041510939	64.87876676835664	45.5504397006059	45.00000025533609	0	0	0	-14.90826089040381	0	74.99995111164063	45.00000025533609	0	0
9.99	-7.3843040754277	7.092924983362962	-116.2749286837778	0	0.9399999999999999	0	45.00013367425935	-9.99999998857335	0	60.00010870488087	1.047199448454682	-4.999999851047217	0	0	45.00013367425935	-9.99999998857335	0	60.00010870488087	1.047199448454682	-4.999999851047217	0	0	10.5298891833001	5.785447978568439	20.20850727860697	9.521777194586621	23.55433966663978	65.72896283859116	52.71585956082274	45.00000025533617	0	0	0	-14.90875372651242	0	74.99995310864901	45.00000025533617	0	0
10	-7.365029962014788	7.069577743342355	-116.2778922488095	0	0.9399999999999999	0	45.00013127061288	-9.99999998857335	0	60.00010927846356	1.047199458465588	-4.999999851047217	0	0	45.00013127061288	-9.99999998857335	0	60.00010927846356	1.047199458465588	-4.999999851047217	0	0	10.50902959648767	5.777429048996334	20.21345407836651	2.057347136447294	19.8689683523322	62.67921636123017	59.74057621554241	45.00000025533632	0	0	0	-14.90975234751067	0	74.99995711732547	45.00000025533632	0	0
10.01	-7.353675666209411	7.054511839716726	-116.2970607894359	0	0.9399999999999999	0	45.00012912511597	-9.999999988573347	0	60.00010978989511	1.047199467391753	-4.999999851047217	0	0	45.00012912511597	-9.999999988573347	0	60.00010978989511	1.047199467391753	-4.999999851047217	0	0	10.50778791181892	5.749411680940094	20.23555703138723	-6.369252209928493	13.64116994417503	59.86690306747165	69.45468866627374	45.00000025533646	0	0	0	-14.91064949714386	0	74.99996069547379	45.00000025533646	0	0
10.02	-7.352924793148573	7.056168210527566	-116.2681798468466	0	0.9399999999999999	0	45.00012718608334	-9.999999988573347	0	60.0001102512348	1.047199475443649	-4.999999851047217	0	0	45.00012718608334	-9.999999988573347	0	60.0001102512348	1.047199475443649	-4.999999851047217	0	0	10.52660890585975	5.739742342690804	20.18641062052637	-15.3551422951147	6.19941401183409	57.55821367487114	80.66988897028841	45.00000025533658	0	0	0	-14.91146434990392	0	74.99996392929192	45.00000025533658	0	0
10.03	-7.327911787500771	7.035673079936608	-116.2885522201872	0	0.9399999999999999	0	45.00012526916552	-9.999999988573343	0	60.00011070775662	1.047199483411458	-4.999999851047217	0	0	45.00012526916552	-9.999999988573343	0	60.00011070775662	1.047199483411458	-4.999999851047217	0	0	10.52290647671812	5.72456004755224	20.20478377723901	-22.120014004576	0.8797822627096359	51.95167693287954	87.90094665170328	45.0000002553367	0	0	0	-14.91227355907873	0	74.99996712622816	45.0000002553367	0	0
10.04	-7.314047115608284	7.019355054722199	-116.2803356965723	0	0.9399999999999999	0	45.00012414835471	-9.999999988573343	0	60.00011096118071	1.047199487834543	-4.999999851047217	0	0	45.00012414835471	-9.999999988573343	0	60.00011096118071	1.047199487834543	-4.999999851047217	0	0	10.51219332688855	5.701694571614795	20.19102949624497	-31.29513620099886	-15.26145679386457	52.08400310722289	107.2558587741519	45.00000025533679	0	0	0	-14.91273446487509	0	74.99996899545798	45.00000025533679	0	0
10.05	-7.298716724108604	7.008713522376037	-116.2787803758385	0	0.9399999999999999	0	45.00012300791546	-9.999999988573343	0	60.00011123035195	1.047199492532467	-4.999999851047217	0	0	45.00012300791546	-9.999999988573343	0	60.00011123035195	1.047199492532467	-4.999999851047217	0	0	10.51348869668936	5.681115879363871	20.18198138467697	-38.8962917834883	-28.50785111248758	49.5769013785016	122.8826448331542	45.00000025533686	0	0	0	-14.91321913922416	0	74.99997089742357	45.00000025533686	0	0
10.06	-7.286477847222983	6.999303899809156	-116.3007713556383	0	0.9399999999999999	0	45.0001224034182	-9.999999988573343	0	60.00011137020425	1.047199494973351	-4.999999851047217	0	0	45.0001224034182	-9.999999988573343	0	60.00011137020425	1.047199494973351	-4.999999851047217	0	0	10.51614920736605	5.675881572989646	20.21072639972882	-44.80214346595512	-35.44166628562348	45.00411996619963	131.2883128879798	45.00000025533689	0	0	0	-14.91347249458996	0	74.99997190557276	45.00000025533689	0	0
10.07	-7.285340120491679	7.013798013648322	-116.2759733583536	0	0.9399999999999999	0	45.00012223240593	-9.999999988573343	0	60.00011140682741	1.047199495612545	-4.999999851047217	0	0	45.00012223240593	-9.999999988573343	0	60.00011140682741	1.047199495612545	-4.999999851047217	0	0	10.51164879241474	5.688197365895857	20.15993368055178	-49.63653373157534	-39.21812292516456	42.85345519164996	136.7668177515724	45.00000025533689	0	0	0	-14.91353984973899	0	74.99997219077801	45.00000025533689	0	0
10.08	-7.266189154706973	6.999700096434858	-116.2966821770876	0	0.9399999999999999	0	45.00012218657479	-9.999999988573343	0	60.00011141541197	1.047199495762374	-4.999999851047217	0	0	45.00012218657479	-9.999999988573343	0	60.00011141541197	1.047199495762374	-4.999999851047217	0	0	10.52153202220687	5.667011989545651	20.21612983876238	-49.95808623463575	-39.09481358620773	42.69343602221056	136.7150355550677	45.00000025533689	0	0	0	-14.91355643323249	0	74.99997226721274	45.00000025533689	0	0
10.09	-7.269521040286119	6.978396930847943	-116.285429773631	0	0.9399999999999999	0	45.00012214456305	-9.999999988573343	0	60.00011142328112	1.047199495899717	-4.999999851047217	0	0	45.00012214456305	-9.999999988573343	0	60.00011142328112	1.047199495899717	-4.999999851047217	0	0	10.49458684225675	5.649281117486429	20.19715310042275	-49.79787640983309	-39.44484134254892	41.80072269865485	136.7246994558943	45.00000025533689	0	0	0	-14.91357163643186	0	74.99997233727767	45.00000025533689	0	0
10.1	-7.252216087319252	6.986481349403888	-116.2951391612624	0	0.9399999999999999	0	45.0001220567603	-9.999999988573343	0	60.00011143972498	1.047199496186716	-4.999999851047217	0	0	45.0001220567603	-9.999999988573343	0	60.00011143972498	1.047199496186716	-4.999999851047217	0	0	10.52795368538975	5.641590593490904	20.20797827969616	-51.08715583750502	-43.68088652239501	41.18334661751382	139.6442393259518	45.00000025533689	0	0	0	-14.91360341339126	0	74.99997248371041	45.00000025533689	0	0
